# xmcd
#
# Track frame offsets:
#	150
#	11700
#	28775
#	40942
#	58002
#	75867
#	95425
#	109055
#	122675
#	133647
#
# Disc length: 1908
#
# Revision: 2
# Processed by: cddbd v1.5.1PL0 Copyright (c) Steve Scherf et al.
# Submitted via: audiograbber 1.81.03
# Normalized: r1:DSETVAR1
#
DISCID=7807720a
DTITLE=Various Artist - Summertime Blues (AIWA America)
DYEAR=2000
DGENRE=Blues
TTITLE0=King, B.B. - Paying The Cost To Be The Boss
TTITLE1=Tedeschi, Susan - Little By Little
TTITLE2=Waters, Muddy - You Shook Me
TTITLE3=Robert Cray Band - Don't Be Afraid Of The Dark
TTITLE4=Guy, Buddy - Worried Mind (aka Stick Around)
TTITLE5=Thorogood, George - Who Do You Love?
TTITLE6=Hooker, John Lee - One Bourbon, One Scoth, One Beer
TTITLE7=Taylor, Koko - Wang Dang Doodle
TTITLE8=Howlin' Wolf - Little Red Rooster
TTITLE9=Dixon, Willie - 29 Ways
EXTD=
EXTT0=
EXTT1=
EXTT2=
EXTT3=
EXTT4=
EXTT5=
EXTT6=
EXTT7=
EXTT8=
EXTT9=
PLAYORDER=
